<?xml version="1.0" standalone="no"?>
<!DOCTYPE svg PUBLIC "-//W3C//DTD SVG 20010904//EN"
 "http://www.w3.org/TR/2001/REC-SVG-20010904/DTD/svg10.dtd">
<svg version="1.0" xmlns="http://www.w3.org/2000/svg"
 width="300.000000pt" height="493.000000pt" viewBox="0 0 300.000000 493.000000"
 preserveAspectRatio="xMidYMid meet">
<metadata>
Created by potrace 1.10, written by Peter Selinger 2001-2011
</metadata>
<g transform="translate(0.000000,493.000000) scale(0.050000,-0.050000)"
fill="#000000" stroke="none">
<path d="M2911 9668 c-673 -246 -503 -1301 209 -1296 504 3 817 518 593 974
-137 279 -511 429 -802 322z"/>
<path d="M2240 8342 c-226 -45 -1071 -709 -1112 -875 -15 -60 -3 -296 41 -767
17 -181 31 -340 31 -353 0 -16 -67 -26 -207 -30 -250 -8 -338 -53 -416 -211
l-47 -96 -5 -2305 c-7 -2552 -16 -2385 133 -2385 178 0 162 -226 162 2356 l0
2282 44 41 c47 44 396 63 396 22 0 -133 412 -142 485 -11 13 23 59 30 206 30
l189 0 0 140 0 140 -169 0 -169 0 -10 65 c-18 116 -73 723 -71 795 1 73 479
468 509 420 25 -40 21 -2586 -5 -2770 -51 -369 -56 -790 -10 -890 35 -79 831
-1109 1077 -1395 363 -422 912 68 578 515 -37 50 -253 324 -479 610 l-413 520
11 170 c33 527 90 981 125 994 52 20 63 -20 105 -394 88 -770 87 -758 53 -810
-46 -70 -54 -56 215 -396 l247 -312 140 224 c77 123 147 236 156 251 37 66 46
185 29 411 -64 842 -81 1324 -60 1716 11 219 22 548 23 732 2 184 8 449 15
589 l13 255 248 -184 247 -183 -12 -192 c-14 -218 -46 -555 -64 -666 l-13 -75
-158 0 -158 0 0 -140 0 -140 167 0 c144 0 172 -6 205 -42 119 -131 337 -131
456 0 61 67 354 62 423 -7 l49 -49 0 -2292 0 -2291 53 -20 c57 -22 160 -8 202
26 42 33 36 4590 -6 4691 -77 184 -216 264 -461 264 l-174 0 14 155 c7 85 22
236 33 335 79 744 111 675 -542 1200 -447 360 -762 443 -1117 295 -190 -79
-456 -79 -636 0 -129 57 -381 73 -566 37z"/>
<path d="M2483 3030 c-132 -211 -154 -283 -123 -409 79 -331 477 -411 675
-137 l65 90 -242 308 c-132 169 -247 310 -254 313 -8 3 -62 -72 -121 -165z"/>
</g>
</svg>
