<?xml version="1.0" standalone="no"?>
<!DOCTYPE svg PUBLIC "-//W3C//DTD SVG 20010904//EN"
 "http://www.w3.org/TR/2001/REC-SVG-20010904/DTD/svg10.dtd">
<svg version="1.0" xmlns="http://www.w3.org/2000/svg"
 width="300.000000pt" height="493.000000pt" viewBox="0 0 300.000000 493.000000"
 preserveAspectRatio="xMidYMid meet">
<metadata>
Created by potrace 1.10, written by Peter Selinger 2001-2011
</metadata>
<g transform="translate(0.000000,493.000000) scale(0.050000,-0.050000)"
fill="#000000" stroke="none">
<path d="M1410 9361 c-94 -22 -147 -57 -180 -122 l-31 -59 -440 0 c-489 0
-519 -8 -519 -140 0 -132 30 -140 517 -140 l438 0 14 -565 c18 -743 -25 -637
465 -1147 326 -342 414 -444 428 -504 69 -295 67 -2046 -5 -4116 -25 -724 -22
-760 75 -868 166 -183 482 -146 588 70 43 88 45 123 111 1870 33 866 42 981
83 995 34 11 42 -64 66 -605 11 -264 29 -651 40 -860 10 -209 29 -591 41 -850
29 -600 57 -670 292 -740 155 -47 366 68 429 234 11 32 11 217 -1 503 -84
1918 -94 4202 -19 4399 11 29 203 237 426 463 515 521 461 392 468 1116 l7
605 427 0 427 0 43 55 c32 40 40 71 31 115 -20 105 -41 110 -503 110 -406 0
-426 2 -438 39 -56 176 -359 200 -496 41 l-68 -80 -1182 0 c-1171 0 -1181 0
-1194 41 -29 90 -217 168 -340 140z m2730 -571 c41 -172 15 -840 -36 -909 -69
-93 -510 -461 -613 -511 -226 -111 -833 -126 -1051 -26 -201 92 -647 508 -663
618 -19 134 -24 755 -7 853 l15 85 1164 0 1165 0 26 -110z"/>
<path d="M2712 8692 c-605 -255 -534 -1145 104 -1292 279 -65 597 107 730 395
233 505 -330 1109 -834 897z"/>
</g>
</svg>
