<?xml version="1.0" standalone="no"?>
<!DOCTYPE svg PUBLIC "-//W3C//DTD SVG 20010904//EN"
 "http://www.w3.org/TR/2001/REC-SVG-20010904/DTD/svg10.dtd">
<svg version="1.0" xmlns="http://www.w3.org/2000/svg"
 width="300.000000pt" height="493.000000pt" viewBox="0 0 300.000000 493.000000"
 preserveAspectRatio="xMidYMid meet">
<metadata>
Created by potrace 1.10, written by Peter Selinger 2001-2011
</metadata>
<g transform="translate(0.000000,493.000000) scale(0.050000,-0.050000)"
fill="#000000" stroke="none">
<path d="M2657 8342 c-807 -165 -698 -1402 123 -1402 637 0 931 772 467 1224
-154 150 -386 220 -590 178z"/>
<path d="M2340 6821 c-323 -98 -382 -190 -667 -1034 -115 -339 -265 -783 -335
-987 -196 -574 -165 -831 124 -1031 132 -92 192 -105 1008 -229 77 -11 224
-34 327 -49 103 -16 191 -32 195 -36 5 -5 -83 -224 -194 -487 -111 -263 -242
-572 -290 -686 -175 -414 -54 -712 289 -712 269 0 294 34 635 860 462 1120
528 1296 528 1397 0 235 -184 401 -490 443 -186 25 -719 110 -817 130 -53 11
-122 20 -155 20 -76 0 -87 -41 144 535 l202 506 -96 114 c-223 268 -181 237
242 -178 463 -454 490 -455 911 -24 616 631 695 749 630 943 -85 257 -344 304
-528 94 -35 -39 -63 -80 -63 -90 0 -26 -188 -234 -323 -357 l-113 -104 -198
276 c-109 151 -240 334 -290 406 -179 254 -427 356 -676 280z"/>
</g>
</svg>
